<svg xmlns="http://www.w3.org/2000/svg" version="1" class="h-8" viewBox="0 0 60 25">
    <g fill="currentColor">
        <path d="M29.18 7.5c-2.76 0-4.99 2.1-4.99 5s2.22 5 4.99 5 5-2.1 5-5-2.24-5-5-5zm0 7.72c-1.55 0-2.58-1.11-2.58-2.72 0-1.62 1.03-2.72 2.58-2.72 1.57 0 2.6 1.1 2.6 2.72 0 1.61-1.03 2.72-2.6 2.72zM40.94 7.5c-2.76 0-4.99 2.1-4.99 5s2.22 5 4.99 5 5-2.1 5-5-2.24-5-5-5zm0 7.72c-1.55 0-2.58-1.11-2.58-2.72 0-1.62 1.03-2.72 2.58-2.72 1.57 0 2.6 1.1 2.6 2.72-.01 1.61-1.04 2.72-2.6 2.72zM55.33 7.69l-1.8 2.91c-.7 1.14-.81 1.39-.82 1.39h-.01c-.01 0-.12-.25-.82-1.39l-1.8-2.91H47.9v9.62h2.27v-2.35c0-2.28-.08-3.41-.07-3.41h.01c.01 0 .78 1.32.87 1.46l1.12 1.92h1.2l1.13-1.92c.08-.14.85-1.46.86-1.46h.01c.01 0-.07 1.13-.07 3.41v2.35h2.27V7.69h-2.17zM14.68 12.36c0-1.29-.57-1.39-1.39-1.39-.77 0-1.92.82-2.78 1.75v4.34c4.03-2.9 4.17-4.5 4.17-4.7zM2.5 12.5a10 10 0 005.23 8.79V3.71C4.61 5.4 2.5 8.71 2.5 12.5z"/><path d="M12.5 2.5c-.68 0-1.35.07-1.99.2v6.42c.85-.54 1.81-.93 2.78-.93 3.18 0 4.17 2.21 4.17 4.17 0 2.55-2.76 5.67-8.98 9.3 1.23.54 2.59.85 4.02.85 5.52 0 10-4.48 10-10 0-5.53-4.48-10.01-10-10.01z"/>
    </g>
</svg>